<svg width="24" height="24" viewBox="0 0 24 24" fill="none" xmlns="http://www.w3.org/2000/svg">
<g filter="url(#filter0_f_190_463)">
<path fill-rule="evenodd" clip-rule="evenodd" d="M19.767 12.4561C20.0777 12.7565 20.0777 13.2435 19.767 13.5439L10.22 22.7747C9.99248 22.9947 9.65029 23.0605 9.353 22.9414C9.05571 22.8224 8.86188 22.5419 8.86188 22.2307L8.86188 18.3846L3.59116 18.3846C3.16916 18.3846 2.76444 18.2225 2.46604 17.934C2.16764 17.6455 2 17.2542 2 16.8461L2 9.15386C2 8.74583 2.16764 8.35452 2.46604 8.066C2.76444 7.77748 3.16916 7.6154 3.59116 7.6154L8.86188 7.6154L8.86188 3.76925C8.86188 3.45813 9.05572 3.17764 9.353 3.05858C9.65029 2.93951 9.99248 3.00533 10.22 3.22532L19.767 12.4561ZM10.453 5.62633L10.453 8.38463C10.453 8.80946 10.0968 9.15386 9.65746 9.15386L3.59116 9.15386L3.59116 16.8461L9.65746 16.8461C10.0968 16.8461 10.453 17.1905 10.453 17.6154L10.453 20.3737L18.0793 13L10.453 5.62633Z" fill="#ED15A4"/>
</g>
<path fill-rule="evenodd" clip-rule="evenodd" d="M20.767 11.4561C21.0777 11.7565 21.0777 12.2435 20.767 12.5439L11.22 21.7747C10.9925 21.9947 10.6503 22.0605 10.353 21.9414C10.0557 21.8224 9.86188 21.5419 9.86188 21.2307L9.86188 17.3846L4.59116 17.3846C4.16916 17.3846 3.76444 17.2225 3.46604 16.934C3.16764 16.6455 3 16.2542 3 15.8461L3 8.15386C3 7.74583 3.16764 7.35452 3.46604 7.066C3.76444 6.77748 4.16916 6.6154 4.59116 6.6154L9.86188 6.6154L9.86188 2.76925C9.86188 2.45813 10.0557 2.17764 10.353 2.05858C10.6503 1.93951 10.9925 2.00533 11.22 2.22532L20.767 11.4561ZM11.453 4.62633L11.453 7.38463C11.453 7.80946 11.0968 8.15386 10.6575 8.15386L4.59116 8.15386L4.59116 15.8461L10.6575 15.8461C11.0968 15.8461 11.453 16.1905 11.453 16.6154L11.453 19.3737L19.0793 12L11.453 4.62633Z" fill="white"/>
<defs>
<filter id="filter0_f_190_463" x="1" y="2" width="20" height="22" filterUnits="userSpaceOnUse" color-interpolation-filters="sRGB">
<feFlood flood-opacity="0" result="BackgroundImageFix"/>
<feBlend mode="normal" in="SourceGraphic" in2="BackgroundImageFix" result="shape"/>
<feGaussianBlur stdDeviation="0.5" result="effect1_foregroundBlur_190_463"/>
</filter>
</defs>
</svg>
