<svg width="32" height="33" viewBox="0 0 32 33" fill="none" xmlns="http://www.w3.org/2000/svg">
<path d="M11.8975 15.9968C11.8975 16.848 11.2087 17.538 10.3591 17.538C9.50939 17.538 8.82059 16.848 8.82059 15.9968C8.82059 15.1455 9.50939 14.4555 10.3591 14.4555C11.2087 14.4555 11.8975 15.1455 11.8975 15.9968Z" fill="white"/>
<path d="M10.3909 20.8055C10.7836 20.3986 11.4306 20.3866 11.8381 20.778L11.8453 20.7847C11.8537 20.7924 11.8691 20.8064 11.8911 20.8257C11.9353 20.8644 12.006 20.924 12.1013 20.9979C12.2925 21.146 12.5791 21.3483 12.9463 21.5515C13.6845 21.96 14.7153 22.3546 15.936 22.3546C17.1566 22.3546 18.1874 21.96 18.9256 21.5515C19.2928 21.3483 19.5795 21.146 19.7707 20.9979C19.866 20.924 19.9367 20.8644 19.9808 20.8257C20.0029 20.8064 20.0183 20.7924 20.0267 20.7847L20.0339 20.7779C20.4414 20.3866 21.0884 20.3986 21.4811 20.8055C21.8748 21.2136 21.8638 21.8641 21.4565 22.2585L21.454 22.2609L21.4507 22.264L21.4421 22.2723C21.4353 22.2787 21.4266 22.2868 21.4161 22.2966C21.3949 22.3161 21.3661 22.3421 21.33 22.3737C21.2577 22.4369 21.1556 22.5228 21.0256 22.6235C20.766 22.8246 20.3916 23.0879 19.9175 23.3503C18.973 23.873 17.6 24.4096 15.936 24.4096C14.272 24.4096 12.899 23.873 11.9545 23.3503C11.4803 23.0879 11.1059 22.8246 10.8464 22.6235C10.7163 22.5228 10.6143 22.4369 10.542 22.3737C10.5058 22.3421 10.4771 22.3161 10.4559 22.2966C10.4453 22.2868 10.4367 22.2787 10.4299 22.2723L10.4212 22.264L10.418 22.2609L10.4166 22.2596L10.4154 22.2585C10.0082 21.8641 9.99717 21.2136 10.3909 20.8055Z" fill="white"/>
<path d="M21.6411 17.538C22.4908 17.538 23.1796 16.848 23.1796 15.9968C23.1796 15.1455 22.4908 14.4555 21.6411 14.4555C20.7914 14.4555 20.1026 15.1455 20.1026 15.9968C20.1026 16.848 20.7914 17.538 21.6411 17.538Z" fill="white"/>
<path fill-rule="evenodd" clip-rule="evenodd" d="M18.9488 4.43713C18.9488 5.70732 18.1486 6.79028 17.0257 7.20766V8.29034H25.2309C27.4266 8.29034 29.3334 9.96791 29.3334 12.1885V25.5848C29.3334 27.8054 27.4266 29.483 25.2309 29.483H6.76931C4.57356 29.483 2.66675 27.8054 2.66675 25.5848L2.66675 12.1885C2.66675 9.96791 4.57356 8.29034 6.76931 8.29034H14.9744V7.20766C13.8515 6.79028 13.0514 5.70732 13.0514 4.43713C13.0514 2.80561 14.3715 1.483 16.0001 1.483C17.6286 1.483 18.9488 2.80561 18.9488 4.43713ZM17.3106 4.43713C17.3106 5.16225 16.7239 5.75008 16.0001 5.75008C15.2763 5.75008 14.6895 5.16225 14.6895 4.43713C14.6895 3.71201 15.2763 3.12418 16.0001 3.12418C16.7239 3.12418 17.3106 3.71201 17.3106 4.43713ZM6.76931 10.3454C5.56639 10.3454 4.71803 11.2383 4.71803 12.1885L4.71803 25.5848C4.71803 26.5351 5.56639 27.428 6.76931 27.428H25.2309C26.4338 27.428 27.2821 26.5351 27.2821 25.5848V12.1885C27.2821 11.2383 26.4338 10.3454 25.2309 10.3454L6.76931 10.3454Z" fill="white"/>
</svg>
