<svg width="196" height="25" viewBox="0 0 196 25" fill="none" xmlns="http://www.w3.org/2000/svg">
<path d="M5.94985 4.06608H11.1064V0.0201918H4.05542C3.55362 -0.0133379 3.05013 0.0528598 2.57406 0.214973C2.09798 0.377087 1.65878 0.631897 1.28173 0.964697C0.904671 1.2975 0.597278 1.70169 0.377289 2.15394C0.1573 2.60619 0.029056 3.09754 0 3.59962V20.3417C0.0137414 21.3655 0.424377 22.3439 1.14538 23.0708C1.86637 23.7977 2.84143 24.2163 3.86503 24.2384H11.1064V20.1989H5.85146C5.53413 20.1989 4.93758 19.4246 4.93758 19.4246V4.97999C4.9308 4.85041 4.95269 4.72092 5.00169 4.60077C5.05069 4.48062 5.12557 4.37276 5.22103 4.28488C5.31649 4.197 5.43019 4.13126 5.55397 4.09234C5.67775 4.05342 5.80859 4.04229 5.93716 4.05974" fill="white"/>
<path d="M25.0155 0.0201337H17.8249C16.7383 0.0138757 15.6924 0.432997 14.9108 1.18789C14.1293 1.94278 13.6741 2.97352 13.6426 4.05968V24.2384H18.5452V17.1906H24.1048V24.2384H29.0075V4.00573C29.0329 3.47533 28.9471 2.94549 28.7556 2.45021C28.5641 1.95494 28.2711 1.50519 27.8954 1.12986C27.5198 0.754529 27.0698 0.461906 26.5744 0.270792C26.079 0.0796781 25.5459 -0.00569754 25.0155 0.0201337ZM24.1048 13.1479H18.5452V4.91963C18.5452 4.05968 19.6051 4.00573 19.402 4.00573H23.1274C23.2565 4.00225 23.3848 4.02506 23.5048 4.07274C23.6247 4.12043 23.7337 4.19201 23.8251 4.28313C23.9165 4.37425 23.9885 4.483 24.0366 4.60278C24.0846 4.72257 24.1078 4.85089 24.1048 4.97993V13.1479Z" fill="white"/>
<path d="M40.2081 0.0201098C39.5353 0.00640374 38.8804 0.236627 38.3642 0.66826C37.8479 1.09989 37.5054 1.70376 37.3998 2.36831C37.4127 1.93508 37.3377 1.50373 37.1796 1.10019C37.0215 0.696651 36.7833 0.329262 36.4795 0.0201098H31.377C31.4626 0.0201098 32.4939 0.416756 32.4939 2.11127V24.2415H37.3998V5.17982C37.3998 5.17982 37.4569 4.05966 38.3169 4.05966H41.7852C41.948 4.05815 42.1094 4.09071 42.2589 4.15525C42.4083 4.21979 42.5426 4.31488 42.6532 4.4344C42.7638 4.55393 42.8481 4.69526 42.9008 4.84931C42.9535 5.00337 42.9735 5.16676 42.9593 5.32896V24.2479H47.8588V3.62175C47.8008 2.65577 47.3771 1.74814 46.6739 1.08328C45.9707 0.418422 45.0409 0.0462245 44.0732 0.0423225L40.2081 0.0201098Z" fill="white"/>
<path d="M62.8716 0.0198292H55.6748C54.5879 0.0135503 53.5416 0.432569 52.7595 1.18738C51.9774 1.94219 51.5215 2.97293 51.4893 4.05938V24.2381H56.3919V17.1903H61.9546V24.2381H66.8541V4.00542C66.8794 3.47558 66.7938 2.9463 66.6027 2.45148C66.4116 1.95666 66.1191 1.50723 65.7442 1.132C65.3693 0.756768 64.9201 0.464007 64.4254 0.272485C63.9308 0.0809626 63.4015 -0.00508854 62.8716 0.0198292ZM61.9546 13.1476H56.3919V4.91933C56.3919 4.05938 57.4517 4.00542 57.2518 4.00542H60.9678C61.0971 4.00151 61.2257 4.02398 61.346 4.07147C61.4663 4.11896 61.5758 4.19047 61.6675 4.28164C61.7593 4.3728 61.8315 4.48171 61.8798 4.60172C61.9281 4.72172 61.9513 4.85031 61.9483 4.97962L61.9546 13.1476Z" fill="white"/>
<path d="M81.3106 0.0204699H70.3311V24.2387H81.3676C82.4788 24.2621 83.556 23.8546 84.3734 23.1016C85.1909 22.3486 85.6853 21.3085 85.7531 20.1992V3.69826C85.7157 3.16061 85.5693 2.6362 85.3229 2.15692C85.0764 1.67764 84.735 1.25352 84.3194 0.910369C83.9038 0.567216 83.4227 0.312202 82.9054 0.160852C82.3882 0.0095013 81.8456 -0.0350234 81.3106 0.0299844M80.7965 19.0885C80.7973 19.2359 80.7689 19.3819 80.7129 19.5182C80.6569 19.6545 80.5745 19.7783 80.4703 19.8825C80.3661 19.9867 80.2423 20.0692 80.106 20.1252C79.9697 20.1812 79.8236 20.2095 79.6763 20.2087H75.2338V4.06636H79.6763C80.7965 4.06636 80.7965 4.72323 80.7965 5.18652V19.0885Z" fill="white"/>
<path d="M94.0924 0.0205078H89.1357V24.2388H94.0924V0.0205078Z" fill="white"/>
<path d="M109.23 0.019876H102.036C100.949 0.0127857 99.9022 0.431539 99.12 1.18652C98.3377 1.9415 97.8821 2.97271 97.8506 4.05942V24.2381H102.756V17.1903H108.316V24.2381H113.206V4.00547C113.234 3.47489 113.151 2.9443 112.961 2.44813C112.771 1.95195 112.478 1.5013 112.103 1.12544C111.727 0.749579 111.277 0.456923 110.781 0.266455C110.285 0.0759865 109.754 -0.00802466 109.223 0.019876M108.306 13.1476H102.747V4.91937C102.747 4.05942 103.807 4.00547 103.604 4.00547H107.329C107.458 4.00199 107.587 4.0248 107.706 4.07248C107.826 4.12017 107.935 4.19175 108.027 4.28287C108.118 4.37399 108.19 4.48274 108.238 4.60253C108.286 4.72231 108.309 4.85063 108.306 4.97967V13.1476Z" fill="white"/>
<path d="M124.424 0.0200039C123.751 0.00763586 123.097 0.238344 122.581 0.66974C122.065 1.10114 121.722 1.70423 121.615 2.3682C121.631 1.93491 121.558 1.503 121.4 1.09913C121.242 0.695256 121.003 0.327995 120.698 0.0200039H115.596C115.681 0.0200039 116.716 0.41665 116.716 2.11117V24.2414H121.615V5.17971C121.615 5.17971 121.672 4.05955 122.536 4.05955H126.007C126.17 4.058 126.331 4.09056 126.48 4.15513C126.63 4.2197 126.764 4.31484 126.874 4.43443C126.984 4.55402 127.069 4.6954 127.121 4.84945C127.173 5.0035 127.193 5.16682 127.178 5.32886V24.2478H132.084V3.62164C132.026 2.65566 131.602 1.74803 130.899 1.08317C130.196 0.418316 129.266 0.0461186 128.298 0.0422166L124.424 0.0200039Z" fill="white"/>
<path d="M139.75 0.0205078V4.06323H144.65V24.2419H149.552V4.06005H154.369V0.0205078H139.75Z" fill="white"/>
<path d="M161.36 0.0175781H156.406V24.239H161.36V0.0175781Z" fill="white"/>
<path d="M180.424 22.0329V16.7272C180.424 15.2961 179.244 14.1188 177.267 13.9189C178.207 13.7927 179.061 13.3068 179.65 12.5634C180.239 11.82 180.517 10.8772 180.424 9.93327V3.80254C180.394 3.26244 180.256 2.73394 180.017 2.2486C179.778 1.76326 179.444 1.33103 179.034 0.977697C178.625 0.624367 178.148 0.357192 177.633 0.192107C177.118 0.0270216 176.574 -0.0325844 176.036 0.0168507H165.06V24.2383H169.962V15.3817L174.287 15.4389C174.626 15.4804 174.937 15.6432 175.164 15.8971C175.391 16.151 175.518 16.4786 175.522 16.8192V21.833C175.522 23.8067 176.179 24.2415 176.236 24.2415H181.656C181.255 24.0324 180.925 23.7106 180.706 23.3158C180.486 22.921 180.387 22.4706 180.421 22.0202M175.512 10.1364C175.512 10.5965 175.052 11.2565 174.538 11.2565H169.953V4.05957H174.335C174.795 4.05957 175.515 4.66248 175.515 5.12261L175.512 10.1364Z" fill="white"/>
<path d="M194.959 13.8041V9.67892H188.929V4.97617C188.924 4.84669 188.947 4.71752 188.996 4.59778C189.046 4.47803 189.121 4.37065 189.217 4.28318C189.312 4.19571 189.426 4.1303 189.549 4.09158C189.673 4.05286 189.804 4.04177 189.932 4.05909H195.092V0.0163729H188.041C187.537 -0.0193329 187.032 0.045444 186.553 0.206954C186.075 0.368464 185.634 0.623475 185.255 0.957149C184.876 1.29082 184.567 1.6965 184.347 2.15058C184.126 2.60466 183.998 3.09808 183.97 3.60214V20.341C183.984 21.3656 184.396 22.3445 185.118 23.0714C185.84 23.7984 186.817 24.2165 187.841 24.2378H195.092V20.1983H189.85C189.215 20.1983 188.926 19.8809 188.926 19.3669V13.8041H194.959Z" fill="white"/>
</svg>
