<svg width="50" height="47" viewBox="0 0 50 47" fill="none" xmlns="http://www.w3.org/2000/svg">
<g filter="url(#filter0_d_190_774)">
<rect x="5.00037" y="1.00043" width="42" height="39" rx="8" fill="#0A0E19"/>
<rect x="5.50037" y="1.50043" width="41" height="38" rx="7.5" stroke="white"/>
<path d="M26.0004 10.5004C20.9538 10.5004 17.0004 12.8658 17.0004 15.885V25.1158C17.0004 28.135 20.9538 30.5004 26.0004 30.5004C31.0469 30.5004 35.0004 28.135 35.0004 25.1158V15.885C35.0004 12.8658 31.0469 10.5004 26.0004 10.5004ZM33.5004 20.5004C33.5004 21.4254 32.7616 22.3687 31.4744 23.0889C30.0251 23.8995 28.0807 24.3466 26.0004 24.3466C23.9201 24.3466 21.9757 23.8995 20.5263 23.0889C19.2391 22.3687 18.5004 21.4254 18.5004 20.5004V18.9004C20.0997 20.3427 22.8344 21.2697 26.0004 21.2697C29.1663 21.2697 31.901 20.3389 33.5004 18.9004V20.5004ZM20.5263 13.2966C21.9757 12.486 23.9201 12.0389 26.0004 12.0389C28.0807 12.0389 30.0251 12.486 31.4744 13.2966C32.7616 14.0168 33.5004 14.96 33.5004 15.885C33.5004 16.81 32.7616 17.7533 31.4744 18.4735C30.0251 19.2841 28.0807 19.7312 26.0004 19.7312C23.9201 19.7312 21.9757 19.2841 20.5263 18.4735C19.2391 17.7533 18.5004 16.81 18.5004 15.885C18.5004 14.96 19.2391 14.0168 20.5263 13.2966ZM31.4744 27.7043C30.0251 28.5149 28.0807 28.962 26.0004 28.962C23.9201 28.962 21.9757 28.5149 20.5263 27.7043C19.2391 26.9841 18.5004 26.0408 18.5004 25.1158V23.5158C20.0997 24.9581 22.8344 25.885 26.0004 25.885C29.1663 25.885 31.901 24.9543 33.5004 23.5158V25.1158C33.5004 26.0408 32.7616 26.9841 31.4744 27.7043Z" fill="white"/>
</g>
<defs>
<filter id="filter0_d_190_774" x="0.000366211" y="0.000427246" width="50" height="47" filterUnits="userSpaceOnUse" color-interpolation-filters="sRGB">
<feFlood flood-opacity="0" result="BackgroundImageFix"/>
<feColorMatrix in="SourceAlpha" type="matrix" values="0 0 0 0 0 0 0 0 0 0 0 0 0 0 0 0 0 0 127 0" result="hardAlpha"/>
<feOffset dx="-1" dy="3"/>
<feGaussianBlur stdDeviation="2"/>
<feComposite in2="hardAlpha" operator="out"/>
<feColorMatrix type="matrix" values="0 0 0 0 0.0786632 0 0 0 0 0.841973 0 0 0 0 0.94496 0 0 0 1 0"/>
<feBlend mode="normal" in2="BackgroundImageFix" result="effect1_dropShadow_190_774"/>
<feBlend mode="normal" in="SourceGraphic" in2="effect1_dropShadow_190_774" result="shape"/>
</filter>
</defs>
</svg>
