<svg width="32" height="33" viewBox="0 0 32 33" fill="none" xmlns="http://www.w3.org/2000/svg">
<path d="M16.0001 16.1497C16.0002 16.3042 15.9657 16.4568 15.8991 16.5962C15.8325 16.7355 15.7356 16.858 15.6155 16.9546L10.4873 21.0758C10.382 21.1604 10.2613 21.2233 10.1318 21.261C10.0024 21.2986 9.86685 21.3103 9.73292 21.2954C9.59899 21.2804 9.4693 21.2391 9.35126 21.1738C9.23322 21.1085 9.12913 21.0205 9.04495 20.9148C8.96077 20.8091 8.89814 20.6878 8.86064 20.5578C8.82313 20.4278 8.81149 20.2916 8.82637 20.1571C8.84125 20.0225 8.88237 19.8922 8.94737 19.7737C9.01237 19.6551 9.09998 19.5505 9.20521 19.466L13.3321 16.1497L9.20521 12.8334C9.09998 12.7488 9.01237 12.6443 8.94737 12.5257C8.88237 12.4071 8.84125 12.2768 8.82637 12.1423C8.81149 12.0078 8.82313 11.8716 8.86064 11.7416C8.89814 11.6116 8.96077 11.4902 9.04495 11.3845C9.12913 11.2788 9.23322 11.1908 9.35126 11.1255C9.4693 11.0602 9.59899 11.0189 9.73292 11.004C9.86685 10.989 10.0024 11.0007 10.1318 11.0384C10.2613 11.0761 10.382 11.139 10.4873 11.2235L15.6155 15.3448C15.7356 15.4414 15.8325 15.5639 15.8991 15.7032C15.9657 15.8425 16.0002 15.9951 16.0001 16.1497ZM22.1539 19.2406H17.0257C16.7537 19.2406 16.4928 19.3491 16.3005 19.5424C16.1081 19.7356 16.0001 19.9976 16.0001 20.2709C16.0001 20.5441 16.1081 20.8062 16.3005 20.9994C16.4928 21.1926 16.7537 21.3012 17.0257 21.3012H22.1539C22.4259 21.3012 22.6868 21.1926 22.8792 20.9994C23.0715 20.8062 23.1796 20.5441 23.1796 20.2709C23.1796 19.9976 23.0715 19.7356 22.8792 19.5424C22.6868 19.3491 22.4259 19.2406 22.1539 19.2406ZM29.3334 6.87695V25.4224C29.3334 25.9689 29.1173 26.493 28.7326 26.8795C28.3479 27.2659 27.8262 27.483 27.2821 27.483H4.71803C4.174 27.483 3.65224 27.2659 3.26755 26.8795C2.88286 26.493 2.66675 25.9689 2.66675 25.4224L2.66675 6.87695C2.66675 6.33044 2.88286 5.80632 3.26755 5.41988C3.65224 5.03344 4.174 4.81635 4.71803 4.81635L27.2821 4.81635C27.8262 4.81635 28.3479 5.03344 28.7326 5.41988C29.1173 5.80632 29.3334 6.33044 29.3334 6.87695ZM27.2821 25.4224V6.87695L4.71803 6.87695L4.71803 25.4224H27.2821Z" fill="white"/>
</svg>
