<svg width="51" height="47" viewBox="0 0 51 47" fill="none" xmlns="http://www.w3.org/2000/svg">
<g filter="url(#filter0_d_190_81)">
<rect x="5.66702" y="1.00043" width="42" height="39" rx="8" fill="#0A0E19"/>
<rect x="6.16702" y="1.50043" width="41" height="38" rx="7.5" stroke="white"/>
<g clip-path="url(#clip0_190_81)">
<path d="M25.6446 24.3299C26.6674 23.5944 27.4439 22.5228 27.8593 21.2736C28.2747 20.0244 28.3069 18.664 27.9512 17.3935C27.5956 16.123 26.8708 15.0099 25.8843 14.2187C24.8977 13.4276 23.7016 13.0004 22.4729 13.0004C21.2443 13.0004 20.0482 13.4276 19.0616 14.2187C18.075 15.0099 17.3503 16.123 16.9947 17.3935C16.639 18.664 16.6712 20.0244 17.0866 21.2736C17.502 22.5228 18.2785 23.5944 19.3013 24.3299C17.4512 25.0665 15.8712 26.4297 14.797 28.2158C14.7405 28.3065 14.7013 28.4084 14.6816 28.5155C14.6619 28.6227 14.6622 28.733 14.6823 28.8401C14.7024 28.9471 14.742 29.0488 14.7988 29.1392C14.8557 29.2296 14.9285 29.3069 15.0132 29.3665C15.0979 29.4262 15.1928 29.4671 15.2923 29.4869C15.3917 29.5066 15.4938 29.5048 15.5926 29.4815C15.6915 29.4583 15.785 29.414 15.8678 29.3513C15.9507 29.2887 16.0212 29.2088 16.0752 29.1165C16.7681 27.9652 17.7162 27.0192 18.8335 26.3643C19.9508 25.7094 21.2018 25.3663 22.4729 25.3663C23.7441 25.3663 24.9951 25.7094 26.1124 26.3643C27.2297 27.0192 28.1778 27.9652 28.8707 29.1165C28.9826 29.2962 29.1555 29.4211 29.352 29.4642C29.5485 29.5073 29.7528 29.4651 29.9207 29.3468C30.0887 29.2284 30.2067 29.0435 30.2494 28.8318C30.2921 28.6202 30.256 28.3989 30.1489 28.2158C29.0747 26.4297 27.4947 25.0665 25.6446 24.3299ZM18.2758 19.1858C18.2758 18.289 18.522 17.4124 18.9832 16.6668C19.4444 15.9212 20.0999 15.34 20.8668 14.9968C21.6337 14.6537 22.4776 14.5639 23.2918 14.7388C24.1059 14.9138 24.8538 15.3456 25.4408 15.9797C26.0277 16.6138 26.4275 17.4217 26.5894 18.3012C26.7514 19.1808 26.6682 20.0924 26.3506 20.9209C26.0329 21.7494 25.4949 22.4575 24.8047 22.9558C24.1145 23.454 23.3031 23.7199 22.4729 23.7199C21.3602 23.7185 20.2934 23.2404 19.5065 22.3904C18.7197 21.5404 18.2771 20.3879 18.2758 19.1858ZM38.3209 29.3566C38.1514 29.476 37.9449 29.5178 37.7469 29.4728C37.5488 29.4277 37.3755 29.2996 37.2649 29.1165C36.5728 27.9645 35.6248 27.0181 34.5073 26.3634C33.3898 25.7088 32.1384 25.3668 30.8672 25.3686C30.6648 25.3686 30.4707 25.2818 30.3276 25.1272C30.1845 24.9726 30.1041 24.7629 30.1041 24.5443C30.1041 24.3256 30.1845 24.1159 30.3276 23.9613C30.4707 23.8067 30.6648 23.7199 30.8672 23.7199C31.4853 23.7193 32.0956 23.5712 32.6546 23.2862C33.2135 23.0012 33.7073 22.5863 34.1007 22.0713C34.494 21.5563 34.7772 20.9537 34.93 20.3067C35.0829 19.6597 35.1015 18.9843 34.9846 18.3286C34.8678 17.6729 34.6183 17.0532 34.2541 16.5138C33.8898 15.9743 33.4198 15.5284 32.8775 15.208C32.3352 14.8875 31.7342 14.7004 31.1172 14.66C30.5002 14.6196 29.8826 14.7269 29.3085 14.9742C29.2149 15.018 29.1141 15.041 29.0122 15.0419C28.9102 15.0428 28.8091 15.0217 28.7148 14.9797C28.6205 14.9377 28.535 14.8757 28.4633 14.7974C28.3915 14.719 28.3351 14.626 28.2972 14.5237C28.2593 14.4214 28.2408 14.312 28.2427 14.2018C28.2447 14.0917 28.267 13.9831 28.3085 13.8824C28.35 13.7817 28.4097 13.6911 28.4841 13.6158C28.5586 13.5405 28.6462 13.4821 28.7419 13.444C30.0559 12.8779 31.5173 12.8575 32.8443 13.3868C34.1714 13.9161 35.2699 14.9575 35.9281 16.3102C36.5863 17.6628 36.7575 19.2309 36.4086 20.7118C36.0597 22.1928 35.2155 23.4817 34.0389 24.3299C35.8889 25.0665 37.4689 26.4297 38.5431 28.2158C38.6537 28.399 38.6923 28.622 38.6507 28.8359C38.609 29.0499 38.4904 29.2371 38.3209 29.3566Z" fill="white"/>
</g>
</g>
<defs>
<filter id="filter0_d_190_81" x="0.667023" y="0.000427246" width="50" height="47" filterUnits="userSpaceOnUse" color-interpolation-filters="sRGB">
<feFlood flood-opacity="0" result="BackgroundImageFix"/>
<feColorMatrix in="SourceAlpha" type="matrix" values="0 0 0 0 0 0 0 0 0 0 0 0 0 0 0 0 0 0 127 0" result="hardAlpha"/>
<feOffset dx="-1" dy="3"/>
<feGaussianBlur stdDeviation="2"/>
<feComposite in2="hardAlpha" operator="out"/>
<feColorMatrix type="matrix" values="0 0 0 0 0.0786632 0 0 0 0 0.841973 0 0 0 0 0.94496 0 0 0 1 0"/>
<feBlend mode="normal" in2="BackgroundImageFix" result="effect1_dropShadow_190_81"/>
<feBlend mode="normal" in="SourceGraphic" in2="effect1_dropShadow_190_81" result="shape"/>
</filter>
<clipPath id="clip0_190_81">
<rect width="24" height="24" fill="white" transform="translate(14.667 8.50043)"/>
</clipPath>
</defs>
</svg>
