<svg width="51" height="47" viewBox="0 0 51 47" fill="none" xmlns="http://www.w3.org/2000/svg">
<g filter="url(#filter0_d_190_553)">
<rect x="5.33368" y="1.00043" width="42" height="39" rx="8" fill="#0A0E19"/>
<rect x="5.83368" y="1.50043" width="41" height="38" rx="7.5" stroke="white"/>
<path d="M35.8299 14.8279C35.7832 14.7126 35.7093 14.6104 35.6144 14.5299C35.5195 14.4494 35.4066 14.3932 35.2852 14.3659C35.1638 14.3387 35.0376 14.3413 34.9175 14.3736C34.7973 14.4058 34.6868 14.4667 34.5953 14.5511L30.7206 18.1264L29.064 17.7707L28.7082 16.1142L32.2839 12.2399C32.3683 12.1485 32.4292 12.038 32.4614 11.9178C32.4937 11.7977 32.4963 11.6715 32.4691 11.5502C32.4418 11.4288 32.3856 11.3158 32.3051 11.221C32.2246 11.1261 32.1224 11.0522 32.007 11.0055C30.9561 10.5805 29.8168 10.42 28.6893 10.5382C27.5618 10.6563 26.4806 11.0496 25.5406 11.6834C24.6007 12.3171 23.8308 13.172 23.2986 14.1729C22.7664 15.1738 22.4882 16.2901 22.4884 17.4236C22.4872 18.3808 22.6836 19.328 23.0653 20.2058L17.2763 25.2107C17.2619 25.2222 17.2484 25.2357 17.2349 25.2481C16.6579 25.8251 16.3337 26.6077 16.3337 27.4237C16.3337 27.8278 16.4133 28.2278 16.5679 28.6011C16.7225 28.9744 16.9492 29.3136 17.2349 29.5993C17.5207 29.885 17.8599 30.1116 18.2332 30.2662C18.6065 30.4208 19.0067 30.5004 19.4108 30.5004C20.2268 30.5004 21.0095 30.1763 21.5866 29.5993C21.5991 29.5868 21.6125 29.5724 21.6241 29.5589L26.6285 23.7686C27.6827 24.2313 28.8357 24.4238 29.983 24.3287C31.1304 24.2336 32.2359 23.8539 33.1995 23.2239C34.1631 22.5939 34.9543 21.7336 35.5016 20.7208C36.0488 19.708 36.3348 18.5748 36.3337 17.4236C36.3352 16.534 36.1641 15.6524 35.8299 14.8279ZM29.4111 22.8072C28.5006 22.806 27.6053 22.5745 26.8083 22.1343C26.6539 22.049 26.4749 22.0194 26.3013 22.0504C26.1276 22.0813 25.9699 22.171 25.8546 22.3045L20.4799 28.5283C20.1891 28.8046 19.8018 28.9564 19.4006 28.9512C18.9995 28.9461 18.6162 28.7845 18.3325 28.5008C18.0489 28.2172 17.8872 27.834 17.8821 27.4329C17.877 27.0318 18.0287 26.6445 18.3051 26.3537L24.5248 20.9807C24.6585 20.8652 24.7484 20.7074 24.7793 20.5335C24.8103 20.3597 24.7806 20.1805 24.695 20.026C24.2047 19.1393 23.9746 18.1322 24.0311 17.1206C24.0877 16.1089 24.4286 15.1338 25.0148 14.3072C25.6009 13.4807 26.4084 12.8363 27.3444 12.4481C28.2805 12.06 29.3071 11.9438 30.3062 12.113L27.3064 15.3634C27.2229 15.4539 27.1624 15.5632 27.13 15.682C27.0975 15.8007 27.094 15.9256 27.1199 16.046L27.6641 18.5772C27.6952 18.722 27.7674 18.8547 27.8722 18.9594C27.9769 19.0641 28.1096 19.1364 28.2544 19.1675L30.7879 19.7117C30.9083 19.7375 31.0331 19.734 31.1519 19.7016C31.2707 19.6691 31.38 19.6086 31.4705 19.5252L34.7213 16.5257C34.8509 17.2977 34.8107 18.0886 34.6036 18.8435C34.3965 19.5984 34.0275 20.2991 33.5221 20.897C33.0167 21.4948 32.3871 21.9754 31.6772 22.3053C30.9672 22.6352 30.1939 22.8065 29.4111 22.8072Z" fill="white"/>
</g>
<defs>
<filter id="filter0_d_190_553" x="0.333679" y="0.000427246" width="50" height="47" filterUnits="userSpaceOnUse" color-interpolation-filters="sRGB">
<feFlood flood-opacity="0" result="BackgroundImageFix"/>
<feColorMatrix in="SourceAlpha" type="matrix" values="0 0 0 0 0 0 0 0 0 0 0 0 0 0 0 0 0 0 127 0" result="hardAlpha"/>
<feOffset dx="-1" dy="3"/>
<feGaussianBlur stdDeviation="2"/>
<feComposite in2="hardAlpha" operator="out"/>
<feColorMatrix type="matrix" values="0 0 0 0 0.0786632 0 0 0 0 0.841973 0 0 0 0 0.94496 0 0 0 1 0"/>
<feBlend mode="normal" in2="BackgroundImageFix" result="effect1_dropShadow_190_553"/>
<feBlend mode="normal" in="SourceGraphic" in2="effect1_dropShadow_190_553" result="shape"/>
</filter>
</defs>
</svg>
