<svg width="146" height="24" viewBox="0 0 146 24" fill="none" xmlns="http://www.w3.org/2000/svg">
<path fill-rule="evenodd" clip-rule="evenodd" d="M10.68 16.5248V12.9227H15.6307V7.72606C15.6307 5.42458 14.5165 4.23535 12.3302 4.23535H11.9177C9.73141 4.23535 8.61719 5.42458 8.61719 8.00028V16.7367C8.61719 18.7738 9.73141 19.915 11.9177 19.915H12.3302C14.5165 19.915 15.6307 18.7928 15.6307 16.4912V14.8297H13.6711V16.5248C13.6711 17.4356 13.2123 17.9408 12.3513 17.9408H11.974C11.1131 17.9408 10.68 17.4356 10.68 16.5248ZM13.5679 10.909H10.68V7.62555C10.68 6.71475 11.0567 6.24828 11.9177 6.24828H12.3302C13.2008 6.24828 13.5679 6.71475 13.5679 7.62555V10.909Z" fill="white"/>
<path fill-rule="evenodd" clip-rule="evenodd" d="M18.8287 4.44724H16.869V23.729H18.8262L18.8287 18.8556C19.3019 19.3649 20.1399 19.915 21.3041 19.915C23.0172 19.915 23.8826 18.6643 23.8826 16.8427V7.30772C23.8826 5.48612 23.0172 4.23535 21.3041 4.23535C20.1399 4.23535 19.3019 4.86208 18.8287 5.40073V4.44724ZM20.6852 17.9021C20.0226 17.9021 19.3777 17.5638 18.8287 17.0545V6.98989C19.3777 6.48063 20.0226 6.24828 20.6852 6.24828C21.4235 6.24828 21.9229 6.63819 21.9229 7.51961V16.6308C21.9229 17.5122 21.4235 17.9021 20.6852 17.9021Z" fill="white"/>
<path fill-rule="evenodd" clip-rule="evenodd" d="M25.1195 14.4059C25.1195 12.4962 25.6378 11.6898 27.1823 11.1217L29.963 10.1682V7.73149C29.963 6.8207 29.578 6.23323 28.7294 6.23323H28.42C27.5715 6.23323 27.0836 6.8207 27.0836 7.73149V9.74443H25.1195V7.73149C25.1195 5.43002 26.2652 4.23535 28.42 4.23535H28.7294C30.8843 4.23535 31.9268 5.43002 31.9268 7.73149V19.7031H29.963V18.8081C29.41 19.3762 28.655 19.915 27.4918 19.915C25.8709 19.915 25.1195 18.9705 25.1195 17.2664V14.4059ZM29.963 17.2664V12.0752L28.1324 12.8635C27.3887 13.1769 27.0792 13.5245 27.0792 14.4059V16.7367C27.0792 17.4811 27.5749 17.9021 28.2137 17.9021C28.8239 17.9021 29.3052 17.7561 29.963 17.2664Z" fill="white"/>
<path d="M38.0121 19.7031H40.0749V7.09583C40.7942 6.55718 41.3752 6.24828 41.9314 6.24828C42.5452 6.24828 42.8597 6.64977 42.8597 7.41366V19.7031H44.9225V6.98989C44.9225 5.31519 44.1232 4.23535 42.5503 4.23535C41.3803 4.23535 40.4944 4.74457 39.7655 5.40073C39.3915 4.60746 38.748 4.23535 37.7027 4.23535C36.5806 4.23535 35.8219 4.80333 35.2273 5.40073V4.44724H33.1645V19.7031H35.2273V7.09583C35.9466 6.55718 36.5276 6.24828 37.0839 6.24828C37.6976 6.24828 38.0121 6.64977 38.0121 7.41366V19.7031Z" fill="white"/>
<path d="M0.985229 10.9716V13.034L6.14225 18.2194V15.3495L2.76743 11.9736L6.14225 8.52961V5.71802L0.985229 10.9716Z" fill="white"/>
<path d="M50.7727 11.9736L47.3979 8.52961V5.71802L52.5549 10.9716V13.034L47.3979 18.2194V15.3591L50.7727 11.9736Z" fill="white"/>
<path d="M60.8015 4.23535H61.4887V19.7648H60.8015V4.23535Z" fill="white"/>
<path d="M80.3573 15.4963H74.1885L73.1497 17.6471H69.8157L75.6059 6.28125H78.9399L84.7301 17.6471H81.3961L80.3573 15.4963ZM75.2596 13.2794H79.3023L77.289 9.09375L75.2596 13.2794Z" fill="white"/>
<path d="M92.8284 12.7831C92.8284 13.2574 92.8714 13.6461 92.9573 13.9494C93.0432 14.2472 93.1828 14.4844 93.376 14.6608C93.5693 14.8373 93.819 14.9586 94.125 15.0248C94.4364 15.091 94.8175 15.1241 95.2685 15.1241H100.938V17.6471H94.6565C93.7867 17.6471 93.0458 17.5754 92.4338 17.432C91.8271 17.2831 91.3305 17.057 90.944 16.7537C90.5574 16.4449 90.2756 16.0561 90.0984 15.5873C89.9266 15.1186 89.8407 14.5616 89.8407 13.9164V6.28125H92.8284V12.7831Z" fill="white"/>
<path d="M106.636 17.6471V6.28125H109.624V17.6471H106.636Z" fill="white"/>
<path d="M122.595 8.7546V17.6471H119.607V8.7546H114.912V6.28125H127.298V8.7546H122.595Z" fill="white"/>
<path d="M141.468 15.4963H135.299L134.26 17.6471H130.926L136.717 6.28125H140.051L145.841 17.6471H142.507L141.468 15.4963ZM136.37 13.2794H140.413L138.4 9.09375L136.37 13.2794Z" fill="white"/>
</svg>
