<svg width="160" height="26" viewBox="0 0 1377 219" fill="none" xmlns="http://www.w3.org/2000/svg">
<path fill-rule="evenodd" clip-rule="evenodd" d="M83.3315 150.788V117.919H125.74V70.4997C125.74 49.4987 116.195 38.647 97.4676 38.647H93.9335C75.2058 38.647 65.6613 49.4987 65.6613 73.002V152.722C65.6613 171.31 75.2058 181.724 93.9335 181.724H97.4676C116.195 181.724 125.74 171.483 125.74 150.482V135.321H108.953V150.788C108.953 159.099 105.023 163.709 97.6478 163.709H94.4159C87.0413 163.709 83.3315 159.099 83.3315 150.788ZM108.07 99.5436H83.3315V69.5825C83.3315 61.2715 86.558 57.015 93.9335 57.015H97.4676C104.925 57.015 108.07 61.2715 108.07 69.5825V99.5436Z" fill="white"/>
<path fill-rule="evenodd" clip-rule="evenodd" d="M153.134 40.5804H136.347V216.527H153.112L153.134 172.057C157.187 176.704 164.366 181.724 174.338 181.724C189.013 181.724 196.426 170.311 196.426 153.689V66.6823C196.426 50.0603 189.013 38.647 174.338 38.647C164.366 38.647 157.187 44.3659 153.134 49.2811V40.5804ZM169.037 163.356C163.361 163.356 157.837 160.269 153.134 155.622V63.7821C157.837 59.1351 163.361 57.015 169.037 57.015C175.361 57.015 179.639 60.5729 179.639 68.6158V151.755C179.639 159.798 175.361 163.356 169.037 163.356Z" fill="white"/>
<path fill-rule="evenodd" clip-rule="evenodd" d="M207.021 131.454C207.021 114.027 211.461 106.668 224.692 101.485L248.511 92.7842V70.5493C248.511 62.2382 245.213 56.8776 237.944 56.8776H235.294C228.025 56.8776 223.846 62.2382 223.846 70.5493V88.9173H207.021V70.5493C207.021 49.5483 216.835 38.647 235.294 38.647H237.944C256.402 38.647 265.333 49.5483 265.333 70.5493V179.791H248.511V171.624C243.774 176.807 237.306 181.724 227.342 181.724C213.458 181.724 207.021 173.106 207.021 157.556V131.454ZM248.511 157.556V110.185L232.83 117.379C226.459 120.239 223.808 123.41 223.808 131.454V152.722C223.808 159.514 228.054 163.356 233.527 163.356C238.753 163.356 242.876 162.024 248.511 157.556Z" fill="white"/>
<path d="M317.46 179.791H335.13V64.7489C341.292 59.8337 346.269 57.015 351.033 57.015C356.291 57.015 358.985 60.6785 358.985 67.6491V179.791H376.655V63.7821C376.655 48.5005 369.808 38.647 356.334 38.647C346.312 38.647 338.724 43.2936 332.48 49.2811C329.276 42.0424 323.764 38.647 314.81 38.647C305.198 38.647 298.699 43.8297 293.605 49.2811V40.5804H275.935V179.791H293.605V64.7489C299.767 59.8337 304.744 57.015 309.509 57.015C314.766 57.015 317.46 60.6785 317.46 67.6491V179.791Z" fill="white"/>
<path d="M0.285339 100.115V118.934L44.4607 166.251V140.063L15.5518 109.258L44.4607 77.832V52.1763L0.285339 100.115Z" fill="white"/>
<path d="M426.769 109.258L397.859 77.832V52.1763L442.035 100.115V118.934L397.859 166.251V140.151L426.769 109.258Z" fill="white"/>
<path d="M512.086 38.647H517.972V180.353H512.086V38.647Z" fill="white"/>
<path d="M1110.04 161.513V57.5017H1207.16V79.6816H1136.64V96.8654H1203.53V119.045H1136.64V139.333H1208.14V161.513H1110.04Z" fill="white"/>
<path d="M1023.49 80.1358V161.513H997.586V80.1358H956.88V57.5017H1064.27V80.1358H1023.49Z" fill="white"/>
<path d="M885.13 161.513V57.5017H911.034V161.513H885.13Z" fill="white"/>
<path d="M739.789 161.513V57.5017H765.693V138.727H835.724V161.513H739.789Z" fill="white"/>
<path d="M588.023 161.513V57.5017H685.146V79.6816H614.625V96.8654H681.515V119.045H614.625V139.333H686.123V161.513H588.023Z" fill="white"/>
<path d="M1343.07 91.9407C1327.63 125.134 1304.86 154.011 1276.06 161.512C1312.75 160.169 1339.7 147.774 1356.34 119.512C1352.25 110.808 1347.94 102.054 1343.07 91.9407Z" fill="white"/>
<path d="M1343.07 91.9407C1327.63 125.134 1304.86 154.011 1276.06 161.512C1312.75 160.169 1339.7 147.774 1356.34 119.512C1352.25 110.808 1347.94 102.054 1343.07 91.9407Z" fill="url(#paint0_linear_400_2681)"/>
<path d="M1347.7 161.498L1343.56 152.47L1342.31 149.694C1349.32 144.09 1355.56 137.267 1360.96 129.088L1376.6 161.498H1347.7Z" fill="white"/>
<path d="M1338.02 81.5582L1326.4 57.4875H1297.49L1247.29 161.498H1276.2L1279.8 153.63H1279.8L1294.49 121.529H1294.49L1312.09 83.2253L1323.78 108.888C1327.89 102.265 1331.71 95.1283 1335.19 87.6319L1338.02 81.5582Z" fill="white"/>
<defs>
<linearGradient id="paint0_linear_400_2681" x1="1419.48" y1="61.2967" x2="1280.82" y2="132.47" gradientUnits="userSpaceOnUse">
<stop offset="0.368946" stop-color="#DD42BB"/>
<stop offset="1" stop-color="#FFB054"/>
</linearGradient>
</defs>
</svg>
