<svg width="178" height="24" viewBox="0 0 178 24" fill="none" xmlns="http://www.w3.org/2000/svg">
<path fill-rule="evenodd" clip-rule="evenodd" d="M6.97242 13.6947L10.5759 3.90878L14.0134 13.6947H6.97242ZM17.5151 23.5544H20.818L12.2438 0H8.97593L0.000488281 23.5544H3.33733L5.97242 16.3357H14.9479L17.5151 23.5544ZM28.0017 15.4199C24.9397 14.7579 21.7783 14.0351 21.7783 10.3415C21.7783 7.09825 24.521 5.0538 28.6637 5.0538C31.3432 5.0538 33.9034 6.05147 35.1794 8.49123L32.3935 9.6538C32.1701 9.00234 30.728 7.3614 28.321 7.3614C25.9631 7.3614 24.7841 8.75789 24.7841 9.96491C24.7841 11.662 27.0251 12.3661 28.9385 12.7521C32.8964 13.5497 36.3397 14.5614 36.3397 18.2936C36.3397 21.1965 33.7631 23.9181 28.8414 23.9181C25.218 23.9181 22.6438 22.7076 21.4063 20.1766L24.5829 19.6211C25.3806 21.0105 26.8227 21.6105 28.9713 21.6105C31.6356 21.6105 33.1946 20.5942 33.1946 18.6702C33.1946 16.6351 30.6368 15.9906 28.0017 15.4199ZM42.9385 5.59767H46.1923V8.10293H42.9385V18.2912C42.9385 20.4047 42.9385 21.3111 44.2239 21.3111C44.7911 21.3111 45.5876 21.083 46.1923 20.8959V23.3766C45.6625 23.4515 44.4122 23.676 43.2765 23.676C39.7958 23.676 39.7958 21.9883 39.8344 19.6515V8.1041H36.9958V5.59883H39.8344V1.32047L42.9385 0.0280726V5.59767ZM51.9093 5.6421V8.84796C53.6099 5.46667 56.8274 5.3883 58.0391 5.35087V8.45497C55.0882 8.47602 53.6403 9.08071 52.666 10.6667C51.8672 11.9637 51.9093 13.7825 51.9093 15.3216V23.5544H48.9034V5.6421H51.9093ZM92.7806 0.00350685V2.94152L79.4508 20.7287H93.1151V23.5544H75.811V20.4947L89.2075 2.9076H75.8227V0.00350685H92.7806ZM114.96 5.76608V8.36725C116.631 5.44328 119.48 5.17778 120.543 5.17778C122.823 5.17778 125.554 6.31813 126.425 9.27369C126.73 10.3333 126.73 11.4281 126.73 12.9404V23.5532H123.734V13.4316C123.734 11.6152 123.734 11.0877 123.544 10.4842C123.013 8.78245 121.342 8.02807 119.707 8.02807C118.378 8.02807 117.239 8.44211 116.287 9.38714C114.958 10.7076 114.958 12.0667 114.958 13.3942V23.5532H111.951V5.76608H114.96ZM161.295 20.3836C160.174 22.145 158.136 23.917 154.468 23.917C148.139 23.917 145.748 19.0398 145.748 14.6585C145.748 9.59415 148.503 5.00585 154.204 5.00585C156.441 5.00585 159.574 5.67953 161.307 8.56608L158.491 9.74269C157.957 8.57076 156.812 7.21404 154.317 7.21404C149.378 7.21404 149.088 12.8421 149.088 14.4327C149.088 20.3333 152.48 21.6105 154.505 21.6105C156.824 21.6105 158.009 20.4959 158.634 19.2713L161.295 20.3836ZM97.4333 12.7649H106.932C106.666 8.07954 103.965 7.28889 102.165 7.28889C99.5935 7.28889 97.7736 9.17661 97.4333 12.7649ZM109.405 20.1521C108.379 21.8947 106.403 23.8959 102.503 23.8959C97.2157 23.8959 94.1748 20.3029 94.1748 14.2807C94.1748 7.55088 98.6134 4.97895 102.391 4.97895C105.675 4.97895 108.824 6.79415 109.882 11.2901C110.224 12.8023 110.224 14.1661 110.224 14.924H97.3584C97.2824 17.9146 98.5373 21.7018 102.769 21.6257C104.494 21.5988 105.71 20.8152 106.486 19.586L109.405 20.1521ZM131.602 12.7649H141.1C140.836 8.07954 138.135 7.28889 136.333 7.28889C133.765 7.28889 131.942 9.17661 131.602 12.7649ZM143.574 20.1521C142.549 21.8947 140.572 23.8959 136.673 23.8959C131.386 23.8959 128.344 20.3029 128.344 14.2807C128.344 7.55088 132.783 4.97895 136.561 4.97895C139.845 4.97895 142.991 6.79415 144.052 11.2901C144.391 12.8023 144.391 14.1661 144.391 14.924H131.526C131.451 17.9146 132.709 21.7018 136.935 21.6257C138.661 21.5988 139.881 20.8152 140.653 19.586L143.574 20.1521ZM177.722 23.5743L174.597 23.586C174.597 23.586 174.326 22.3228 174.239 20.945C173.332 21.8889 171.647 23.8398 168.244 23.8398C164.763 23.8398 162.181 21.7743 162.181 18.7497C162.181 17.8012 162.446 16.8561 162.977 16.0585C164.003 14.5439 165.9 13.3333 171.232 12.917L174.065 12.6912V12.2363C174.065 10.3813 174.065 7.27953 170.072 7.27953C167.558 7.27953 166.701 8.49708 166.412 9.59533L163.645 8.44211C163.687 8.3462 163.739 8.24796 163.791 8.14737C164.854 6.18012 166.94 4.96842 169.956 4.96842C171.616 4.96842 173.765 5.38597 175.167 6.48304C177.161 7.99415 177.113 10.9708 177.113 10.9708L177.233 20.1567C177.233 20.1567 177.34 22.8257 177.722 23.5743ZM173.612 18.6363C174.065 17.6515 174.105 17.2363 174.105 14.6199C172.936 14.8117 171.353 15.0351 169.416 15.4561C166.087 16.1731 165.52 17.4257 165.52 18.6749C165.52 20.1135 166.654 21.3252 168.886 21.3252C170.968 21.324 172.744 20.4924 173.612 18.6363ZM73.6906 23.5743L70.5654 23.586C70.5654 23.586 70.2929 22.3228 70.2075 20.945C69.2987 21.8889 67.6169 23.8398 64.2134 23.8398C60.7315 23.8398 58.149 21.7743 58.149 18.7497C58.149 17.8012 58.4145 16.8561 58.9467 16.0585C59.9724 14.5439 61.8695 13.3333 67.1993 12.917L70.0368 12.6912V12.2363C70.0368 10.3813 70.0368 7.27953 66.0391 7.27953C63.5256 7.27953 62.6718 8.49708 62.3783 9.59533L59.6122 8.44211C59.6578 8.3462 59.7058 8.24796 59.7596 8.14737C60.8239 6.18012 62.9093 4.96842 65.9245 4.96842C67.5841 4.96842 69.735 5.38597 71.135 6.48304C73.1292 7.99415 73.0812 10.9708 73.0812 10.9708L73.2017 20.1567C73.2017 20.1567 73.3069 22.8257 73.6906 23.5743ZM69.5806 18.6363C70.0368 17.6515 70.073 17.2363 70.073 14.6199C68.9058 14.8117 67.321 15.0351 65.3853 15.4561C62.059 16.1731 61.4917 17.4257 61.4917 18.6749C61.4917 20.1135 62.6251 21.3252 64.8566 21.3252C66.9338 21.324 68.7116 20.4924 69.5806 18.6363Z" fill="white"/>
</svg>
