<svg width="32" height="33" viewBox="0 0 32 33" fill="none" xmlns="http://www.w3.org/2000/svg">
<path d="M16 2.81635C9.27125 2.81635 4 5.97019 4 9.99583V22.3035C4 26.3292 9.27125 29.483 16 29.483C22.7288 29.483 28 26.3292 28 22.3035V9.99583C28 5.97019 22.7288 2.81635 16 2.81635ZM26 16.1497C26 17.383 25.015 18.6407 23.2987 19.601C21.3662 20.6817 18.7738 21.2779 16 21.2779C13.2262 21.2779 10.6337 20.6817 8.70125 19.601C6.985 18.6407 6 17.383 6 16.1497V14.0163C8.1325 15.9394 11.7787 17.1753 16 17.1753C20.2213 17.1753 23.8675 15.9343 26 14.0163V16.1497ZM8.70125 6.54455C10.6337 5.46378 13.2262 4.86763 16 4.86763C18.7738 4.86763 21.3662 5.46378 23.2987 6.54455C25.015 7.50481 26 8.7625 26 9.99583C26 11.2292 25.015 12.4869 23.2987 13.4471C21.3662 14.5279 18.7738 15.124 16 15.124C13.2262 15.124 10.6337 14.5279 8.70125 13.4471C6.985 12.4869 6 11.2292 6 9.99583C6 8.7625 6.985 7.50481 8.70125 6.54455ZM23.2987 25.7548C21.3662 26.8356 18.7738 27.4317 16 27.4317C13.2262 27.4317 10.6337 26.8356 8.70125 25.7548C6.985 24.7946 6 23.5369 6 22.3035V20.1702C8.1325 22.0933 11.7787 23.3292 16 23.3292C20.2213 23.3292 23.8675 22.0881 26 20.1702V22.3035C26 23.5369 25.015 24.7946 23.2987 25.7548Z" fill="white"/>
</svg>
