<svg width="122" height="26" viewBox="0 0 122 26" fill="none" xmlns="http://www.w3.org/2000/svg">
<g clip-path="url(#clip0_30_861)">
<path d="M0.767388 25.0476V23.6006C3.41487 23.6006 4.16981 22.8384 4.16981 20.7759V5.11621C4.16981 3.05468 3.41797 2.29152 0.767388 2.29152V0.844482H20.003L21.032 4.27376C21.1509 4.65534 21.2295 4.99827 21.2295 5.1509C21.2295 5.34119 20.8737 5.72277 20.4384 5.72277C20.1612 5.72277 20.0423 5.57014 19.6079 4.92195C17.8291 2.36486 15.5333 1.90895 12.0068 1.90895C9.55577 1.90895 9.27654 2.29053 9.27654 3.8119V11.3642H12.3997C14.6956 11.3642 15.5643 10.8687 16.0814 8.65847C16.161 8.23923 16.2396 8.20057 16.8332 8.16291C17.3079 8.16291 17.5054 8.27689 17.5054 8.88742V16.3605C17.5054 16.742 17.189 16.856 16.7536 16.856C16.3182 16.856 16.2396 16.742 16.1993 16.5894C15.1341 13.2394 14.4619 13.0412 12.4039 13.0412H9.28068V21.1585C9.28068 23.1804 9.67677 23.557 13.3553 23.557C18.2263 23.557 19.5707 22.1496 21.5459 18.869C21.6649 18.6787 21.7435 18.5637 22.2182 18.5637C22.6535 18.5637 22.8118 18.6777 22.8118 18.8303C22.8118 18.983 22.7725 19.1733 22.7332 19.5162L21.8624 25.007H0.76532L0.767388 25.0476Z" fill="white"/>
<path d="M29.3105 5.14575C29.3105 3.08422 28.5587 2.32106 25.6702 2.32106V0.874023H35.8775C42.2894 0.874023 45.7642 2.93555 45.7642 6.55314C45.7642 9.94277 42.4445 11.4691 40.1486 12.1232V12.1996C44.8955 12.7714 47.1913 15.8171 47.1913 18.6418C47.1913 21.2386 45.1333 25.0445 38.0079 25.0445H25.7013V23.5974C28.5866 23.5974 29.3415 22.8353 29.3415 20.7727L29.3105 5.14575ZM34.4503 10.141C34.4503 11.2511 35.0047 11.6277 36.6221 11.6277C39.0731 11.6277 41.0173 10.5969 41.0173 6.93968C41.0173 3.39147 39.2799 2.33097 36.4256 2.33097C34.8433 2.33097 34.4503 2.94051 34.4503 4.31321V10.141ZM34.4503 20.9442C34.4503 22.9661 35.0832 23.5707 37.4598 23.5707C40.6243 23.5707 42.2066 21.4398 42.2066 18.3871C42.2066 14.7299 39.7556 13.0549 36.4256 13.0549C34.7606 13.0549 34.4503 13.3602 34.4503 14.8885V20.9442Z" fill="white"/>
<path d="M65.4031 5.89909C65.4031 6.69992 65.2448 6.85255 64.7308 6.85255C64.2955 6.85255 64.1372 6.6236 63.6243 5.63347C62.7142 3.83954 60.6976 2.01588 58.1639 2.01588C55.868 2.01588 53.8927 3.54221 53.8927 5.60374C53.8927 10.9756 66.613 9.60786 66.613 17.9927C66.613 21.3427 64.6688 25.3865 57.3572 25.3865C55.2578 25.3865 51.7727 24.662 50.3972 23.9395C50.1201 23.5965 49.7643 20.5895 49.7643 18.9442C49.7643 18.1434 49.9226 17.8738 50.5958 17.8738C51.269 17.8738 51.4262 17.9501 51.7024 18.9442C52.1378 20.4309 53.8017 23.9395 58.1142 23.9395C60.6479 23.9395 62.9024 22.7204 62.9024 20.0939C62.9024 14.4148 50.1821 15.1383 50.1821 7.50669C50.1821 2.77905 54.929 0.568848 58.8071 0.568848C62.5301 0.568848 65.0225 1.63926 65.2603 1.93659C65.2996 2.46982 65.4186 2.96736 65.4186 4.45404V5.90107L65.4031 5.89909Z" fill="white"/>
<path d="M92.3949 20.8848C92.276 21.8759 92.1178 22.2922 91.762 22.7183C91.1684 23.4052 87.9666 25.3844 82.3821 25.3844C74.9774 25.3844 69.0413 19.8144 69.0413 12.9954C69.0413 6.17654 74.9774 0.606445 82.3821 0.606445C86.9324 0.606445 92.1963 2.44002 92.1963 4.15465C92.1963 5.82965 91.9192 7.27668 91.9192 7.89118C91.9192 8.12013 91.7217 8.65335 91.247 8.65335C90.8509 8.65335 90.6927 8.53937 90.1404 7.12702C88.8374 3.88606 85.983 2.05249 82.3841 2.05249C78.868 2.05249 74.5865 4.94656 74.5865 12.9548C74.5865 21.0027 78.8576 23.8571 83.5631 23.8571C87.9169 23.8571 90.5231 19.8926 91.0401 18.6736C91.3959 17.8727 91.5148 17.7964 91.9895 17.7964C92.3856 17.7964 92.6224 17.9867 92.6224 18.292C92.6224 18.5209 92.5831 18.8639 92.5438 19.4714L92.3949 20.8848Z" fill="white"/>
<path d="M108.321 0.566895C115.726 0.566895 121.662 6.13699 121.662 12.9559C121.662 19.7748 115.726 25.3449 108.321 25.3449C100.916 25.3449 94.9803 19.7748 94.9803 12.9559C94.9803 6.13699 100.916 0.566895 108.321 0.566895ZM108.321 23.8582C111.837 23.8582 116.119 20.9641 116.119 12.9559C116.119 4.908 111.848 2.05357 108.321 2.05357C104.795 2.05357 100.524 4.94764 100.524 12.9559C100.524 20.9641 104.795 23.8582 108.321 23.8582Z" fill="white"/>
</g>
<defs>
<clipPath id="clip0_30_861">
<rect width="122" height="26" fill="white"/>
</clipPath>
</defs>
</svg>
