<svg width="51" height="47" viewBox="0 0 51 47" fill="none" xmlns="http://www.w3.org/2000/svg">
<g filter="url(#filter0_d_190_67)">
<rect x="5.33368" y="1.00043" width="42" height="39" rx="8" fill="#0A0E19"/>
<rect x="5.83368" y="1.50043" width="41" height="38" rx="7.5" stroke="white"/>
<path d="M34.667 17.1671C35.109 17.1671 35.533 16.9915 35.8455 16.6789C36.1581 16.3664 36.3337 15.9425 36.3337 15.5004V12.1671C36.3337 11.7251 36.1581 11.3011 35.8455 10.9886C35.533 10.676 35.109 10.5004 34.667 10.5004L31.3337 10.5004C30.8917 10.5004 30.4677 10.676 30.1552 10.9886C29.8426 11.3011 29.667 11.7251 29.667 12.1671V13.0004H23.0003V12.1671C23.0003 11.7251 22.8248 11.3011 22.5122 10.9886C22.1996 10.676 21.7757 10.5004 21.3337 10.5004H18.0003C17.5583 10.5004 17.1344 10.676 16.8218 10.9886C16.5093 11.3011 16.3337 11.7251 16.3337 12.1671V15.5004C16.3337 15.9425 16.5093 16.3664 16.8218 16.6789C17.1344 16.9915 17.5583 17.1671 18.0003 17.1671H18.8337V23.8338H18.0003C17.5583 23.8338 17.1344 24.0094 16.8218 24.3219C16.5093 24.6345 16.3337 25.0584 16.3337 25.5004V28.8338C16.3337 29.2758 16.5093 29.6997 16.8218 30.0123C17.1344 30.3248 17.5583 30.5004 18.0003 30.5004H21.3337C21.7757 30.5004 22.1996 30.3248 22.5122 30.0123C22.8248 29.6997 23.0003 29.2758 23.0003 28.8338V28.0004H29.667V28.8338C29.667 29.2758 29.8426 29.6997 30.1552 30.0123C30.4677 30.3248 30.8917 30.5004 31.3337 30.5004H34.667C35.109 30.5004 35.533 30.3248 35.8455 30.0123C36.1581 29.6997 36.3337 29.2758 36.3337 28.8338V25.5004C36.3337 25.0584 36.1581 24.6345 35.8455 24.3219C35.533 24.0094 35.109 23.8338 34.667 23.8338H33.8337V17.1671H34.667ZM31.3337 12.1671L34.667 12.1671V15.5004H31.3337V12.1671ZM18.0003 12.1671H21.3337V13.8233C21.3323 13.8302 21.3323 13.8373 21.3337 13.8442V15.5004H18.0003V12.1671ZM21.3337 28.8338H18.0003V25.5004H21.3337V27.1567C21.3323 27.1636 21.3323 27.1706 21.3337 27.1775V28.8338ZM34.667 28.8338H31.3337V25.5004H34.667V28.8338ZM32.167 23.8338H31.3337C30.8917 23.8338 30.4677 24.0094 30.1552 24.3219C29.8426 24.6345 29.667 25.0584 29.667 25.5004V26.3338H23.0003V25.5004C23.0003 25.0584 22.8248 24.6345 22.5122 24.3219C22.1996 24.0094 21.7757 23.8338 21.3337 23.8338H20.5003V17.1671H21.3337C21.7757 17.1671 22.1996 16.9915 22.5122 16.6789C22.8248 16.3664 23.0003 15.9425 23.0003 15.5004V14.6671H29.667V15.5004C29.667 15.9425 29.8426 16.3664 30.1552 16.6789C30.4677 16.9915 30.8917 17.1671 31.3337 17.1671H32.167V23.8338Z" fill="white"/>
</g>
<defs>
<filter id="filter0_d_190_67" x="0.333679" y="0.000427246" width="50" height="47" filterUnits="userSpaceOnUse" color-interpolation-filters="sRGB">
<feFlood flood-opacity="0" result="BackgroundImageFix"/>
<feColorMatrix in="SourceAlpha" type="matrix" values="0 0 0 0 0 0 0 0 0 0 0 0 0 0 0 0 0 0 127 0" result="hardAlpha"/>
<feOffset dx="-1" dy="3"/>
<feGaussianBlur stdDeviation="2"/>
<feComposite in2="hardAlpha" operator="out"/>
<feColorMatrix type="matrix" values="0 0 0 0 0.0786632 0 0 0 0 0.841973 0 0 0 0 0.94496 0 0 0 1 0"/>
<feBlend mode="normal" in2="BackgroundImageFix" result="effect1_dropShadow_190_67"/>
<feBlend mode="normal" in="SourceGraphic" in2="effect1_dropShadow_190_67" result="shape"/>
</filter>
</defs>
</svg>
