<svg width="32" height="33" viewBox="0 0 32 33" fill="none" xmlns="http://www.w3.org/2000/svg">
<path d="M25.6954 19.8759C24.7442 19.8754 23.8199 20.1886 23.0683 20.7662L19.9596 18.3672C20.1943 17.8341 20.3152 17.2587 20.3147 16.6772C20.3147 16.5786 20.3147 16.4799 20.304 16.3826L22.0836 15.7949C22.6467 16.6553 23.5037 17.2858 24.4978 17.5711C25.4918 17.8564 26.5564 17.7773 27.4964 17.3483C28.4364 16.9193 29.1889 16.1692 29.6161 15.2352C30.0433 14.3013 30.1166 13.2461 29.8226 12.263C29.5286 11.2798 28.8869 10.4346 28.0151 9.88199C27.1433 9.32942 26.0998 9.10655 25.0756 9.25419C24.0515 9.40184 23.1153 9.91012 22.4386 10.6859C21.7619 11.4617 21.3899 12.4531 21.3909 13.4785C21.3909 13.5771 21.3909 13.6758 21.4016 13.7731L19.622 14.3608C19.2318 13.7633 18.697 13.2719 18.0661 12.9316C17.4353 12.5912 16.7285 12.4127 16.0102 12.4123C15.7726 12.4128 15.5356 12.4324 15.3013 12.4709L14.3812 10.4131C15.1756 9.78419 15.7197 8.89686 15.917 7.90842C16.1142 6.91998 15.9519 5.89427 15.4588 5.01309C14.9656 4.13191 14.1735 3.45216 13.2229 3.09433C12.2722 2.7365 11.2244 2.7237 10.2651 3.05819C9.30587 3.39268 8.4971 4.05286 7.98218 4.92172C7.46726 5.79059 7.27945 6.81202 7.45202 7.80497C7.6246 8.79793 8.14643 9.69828 8.92502 10.3465C9.7036 10.9946 10.6887 11.3488 11.7056 11.3461C11.9431 11.3456 12.1802 11.326 12.4145 11.2874L13.3346 13.3399C12.5544 13.9518 12.0128 14.8131 11.8025 15.7768C11.5923 16.7404 11.7263 17.7465 12.1818 18.623L8.72335 21.6671C7.85299 21.0858 6.79853 20.8389 5.7576 20.9727C4.71667 21.1066 3.76074 21.612 3.06899 22.3942C2.37724 23.1764 1.99717 24.1817 2.00002 25.2217C2.00286 26.2616 2.38842 27.2649 3.08444 28.0434C3.78045 28.8218 4.73913 29.3221 5.78078 29.4504C6.82243 29.5786 7.87553 29.3261 8.74269 28.7401C9.60985 28.1541 10.2315 27.2748 10.4912 26.2672C10.7509 25.2595 10.6307 24.1926 10.1533 23.2664L13.6117 20.2224C14.3605 20.7219 15.2492 20.9748 16.1515 20.9452C17.0537 20.9155 17.9236 20.6048 18.6373 20.0571L21.746 22.4561C21.512 22.9875 21.3911 23.561 21.3909 24.1407C21.3909 24.9843 21.6433 25.8088 22.1163 26.5102C22.5893 27.2116 23.2616 27.7582 24.0481 28.081C24.8347 28.4038 25.7002 28.4883 26.5352 28.3237C27.3702 28.1591 28.1372 27.7529 28.7392 27.1565C29.3412 26.56 29.7512 25.8001 29.9173 24.9728C30.0834 24.1455 29.9981 23.288 29.6723 22.5086C29.3465 21.7293 28.7948 21.0633 28.0869 20.5946C27.379 20.126 26.5468 19.8759 25.6954 19.8759ZM25.6954 11.3461C26.1211 11.3461 26.5372 11.4711 26.8912 11.7055C27.2451 11.9398 27.521 12.2728 27.6839 12.6625C27.8468 13.0521 27.8894 13.4809 27.8064 13.8945C27.7233 14.3082 27.5183 14.6882 27.2173 14.9864C26.9163 15.2846 26.5328 15.4877 26.1153 15.57C25.6978 15.6523 25.2651 15.61 24.8718 15.4486C24.4785 15.2872 24.1424 15.0139 23.9059 14.6632C23.6694 14.3126 23.5432 13.9003 23.5432 13.4785C23.5432 12.913 23.7699 12.3706 24.1735 11.9707C24.5772 11.5707 25.1246 11.3461 25.6954 11.3461ZM9.55332 7.08119C9.55332 6.65943 9.67955 6.24715 9.91605 5.89647C10.1525 5.54579 10.4887 5.27247 10.882 5.11107C11.2752 4.94967 11.708 4.90744 12.1255 4.98972C12.543 5.072 12.9265 5.2751 13.2275 5.57332C13.5285 5.87155 13.7335 6.25152 13.8165 6.66517C13.8996 7.07882 13.857 7.50759 13.6941 7.89724C13.5311 8.28689 13.2553 8.61994 12.9013 8.85425C12.5474 9.08857 12.1313 9.21363 11.7056 9.21363C11.1348 9.21363 10.5873 8.98897 10.1837 8.58906C9.78008 8.18914 9.55332 7.64675 9.55332 7.08119ZM6.3249 27.3394C5.89922 27.3394 5.4831 27.2143 5.12915 26.98C4.77521 26.7457 4.49935 26.4127 4.33645 26.023C4.17355 25.6334 4.13093 25.2046 4.21397 24.791C4.29702 24.3773 4.502 23.9973 4.803 23.6991C5.10401 23.4009 5.48751 23.1978 5.90501 23.1155C6.32251 23.0332 6.75526 23.0754 7.14854 23.2368C7.54182 23.3982 7.87796 23.6716 8.11445 24.0222C8.35095 24.3729 8.47718 24.7852 8.47718 25.207C8.47718 25.7725 8.25042 26.3149 7.84679 26.7148C7.44316 27.1147 6.89572 27.3394 6.3249 27.3394ZM13.8579 16.6772C13.8579 16.2554 13.9841 15.8431 14.2206 15.4925C14.4571 15.1418 14.7932 14.8685 15.1865 14.7071C15.5798 14.5457 16.0126 14.5034 16.4301 14.5857C16.8476 14.668 17.2311 14.8711 17.5321 15.1693C17.8331 15.4676 18.038 15.8475 18.1211 16.2612C18.2041 16.6748 18.1615 17.1036 17.9986 17.4932C17.8357 17.8829 17.5599 18.2159 17.2059 18.4503C16.852 18.6846 16.4358 18.8096 16.0102 18.8096C15.4393 18.8096 14.8919 18.585 14.4883 18.1851C14.0846 17.7851 13.8579 17.2428 13.8579 16.6772ZM25.6954 26.2732C25.2698 26.2732 24.8536 26.1481 24.4997 25.9138C24.1457 25.6795 23.8699 25.3465 23.707 24.9568C23.5441 24.5671 23.5015 24.1384 23.5845 23.7247C23.6676 23.3111 23.8725 22.9311 24.1735 22.6329C24.4745 22.3347 24.858 22.1316 25.2755 22.0493C25.693 21.967 26.1258 22.0092 26.5191 22.1706C26.9124 22.332 27.2485 22.6053 27.485 22.956C27.7215 23.3067 27.8477 23.719 27.8477 24.1407C27.8477 24.7063 27.621 25.2487 27.2173 25.6486C26.8137 26.0485 26.2663 26.2732 25.6954 26.2732Z" fill="white"/>
</svg>
