<svg width="32" height="33" viewBox="0 0 32 33" fill="none" xmlns="http://www.w3.org/2000/svg">
<g clip-path="url(#clip0_249_123)">
<path d="M14.6368 21.2557C16.0005 20.2749 17.0358 18.8461 17.5897 17.1805C18.1435 15.515 18.1865 13.7011 17.7123 12.0071C17.2381 10.3131 16.2718 8.8289 14.9563 7.77405C13.6409 6.7192 12.0461 6.14966 10.4079 6.14966C8.76965 6.14966 7.17489 6.7192 5.85946 7.77405C4.54402 8.8289 3.57774 10.3131 3.1035 12.0071C2.62927 13.7011 2.67226 15.515 3.22612 17.1805C3.77998 18.8461 4.8153 20.2749 6.17898 21.2557C3.71221 22.2378 1.60553 24.0553 0.173293 26.4369C0.0980198 26.5577 0.0457346 26.6936 0.0194771 26.8364C-0.00678035 26.9793 -0.00648637 27.1264 0.020342 27.2692C0.0471703 27.4119 0.0999979 27.5475 0.175754 27.668C0.25151 27.7885 0.348683 27.8916 0.461626 27.9711C0.574568 28.0507 0.701026 28.1052 0.83365 28.1316C0.966273 28.1579 1.10242 28.1555 1.23417 28.1244C1.36592 28.0934 1.49064 28.0344 1.6011 27.9509C1.71155 27.8673 1.80553 27.7609 1.87758 27.6377C2.80144 26.1027 4.06562 24.8413 5.55531 23.9681C7.04501 23.0949 8.71303 22.6375 10.4079 22.6375C12.1028 22.6375 13.7708 23.0949 15.2605 23.9681C16.7502 24.8413 18.0144 26.1027 18.9382 27.6377C19.0874 27.8773 19.318 28.0439 19.58 28.1013C19.8419 28.1588 20.1143 28.1026 20.3383 27.9448C20.5622 27.787 20.7196 27.5404 20.7765 27.2582C20.8335 26.976 20.7853 26.681 20.6425 26.4369C19.2103 24.0553 17.1036 22.2378 14.6368 21.2557ZM4.81174 14.3968C4.81174 13.2011 5.13995 12.0323 5.75486 11.0381C6.36978 10.044 7.24377 9.2691 8.26634 8.81153C9.2889 8.35397 10.4141 8.23425 11.4996 8.46751C12.5852 8.70078 13.5823 9.27655 14.365 10.122C15.1476 10.9675 15.6806 12.0447 15.8965 13.2174C16.1124 14.3901 16.0016 15.6056 15.5781 16.7103C15.1545 17.815 14.4372 18.7591 13.5169 19.4234C12.5967 20.0877 11.5147 20.4423 10.4079 20.4423C8.92422 20.4404 7.50179 19.8029 6.45267 18.6696C5.40356 17.5362 4.81342 15.9996 4.81174 14.3968ZM31.5385 27.9579C31.3124 28.1171 31.0372 28.1728 30.7731 28.1128C30.5091 28.0527 30.2779 27.8819 30.1305 27.6377C29.2078 26.1018 27.9437 24.8399 26.4537 23.967C24.9637 23.0942 23.2952 22.6382 21.6002 22.6406C21.3303 22.6406 21.0715 22.5248 20.8807 22.3187C20.6899 22.1125 20.5827 21.833 20.5827 21.5414C20.5827 21.2499 20.6899 20.9703 20.8807 20.7642C21.0715 20.5581 21.3303 20.4423 21.6002 20.4423C22.4243 20.4414 23.2381 20.244 23.9834 19.864C24.7287 19.484 25.3871 18.9309 25.9116 18.2442C26.436 17.5574 26.8136 16.754 27.0174 15.8914C27.2211 15.0287 27.246 14.1281 27.0902 13.2539C26.9343 12.3796 26.6017 11.5534 26.1161 10.8341C25.6304 10.1148 25.0037 9.52033 24.2806 9.09306C23.5576 8.66579 22.7562 8.41631 21.9336 8.36243C21.111 8.30856 20.2875 8.45162 19.522 8.7814C19.3972 8.83969 19.2628 8.87036 19.1269 8.8716C18.9909 8.87284 18.8561 8.84463 18.7304 8.78863C18.6046 8.73263 18.4906 8.64998 18.395 8.54556C18.2993 8.44114 18.224 8.31708 18.1735 8.18069C18.123 8.0443 18.0984 7.89837 18.101 7.7515C18.1035 7.60464 18.1334 7.45982 18.1886 7.32562C18.2439 7.19141 18.3235 7.07054 18.4228 6.97014C18.522 6.86973 18.6389 6.79184 18.7665 6.74106C20.5184 5.98627 22.467 5.95911 24.2364 6.66482C26.0058 7.37052 27.4706 8.75908 28.3481 10.5626C29.2257 12.3662 29.4539 14.4569 28.9888 16.4315C28.5236 18.4061 27.398 20.1247 25.8291 21.2557C28.2959 22.2378 30.4026 24.0553 31.8348 26.4369C31.9822 26.681 32.0338 26.9784 31.9782 27.2637C31.9226 27.5489 31.7644 27.7986 31.5385 27.9579Z" fill="white"/>
</g>
<defs>
<clipPath id="clip0_249_123">
<rect width="32" height="32" fill="white" transform="translate(0 0.149658)"/>
</clipPath>
</defs>
</svg>
